<svg xmlns="http://www.w3.org/2000/svg" width="1000" height="470" viewBox="0 0 1000 470" role="img" aria-labelledby="tt td"><title id="tt">QC tier distribution across 124 evaluated ANTARES PMTs</title><desc id="td">GOLD 31, SILVER 25, BRONZE 30, REVIEW retained 28, REVIEW inspect 10.</desc><rect width="1000" height="470" rx="16" fill="#0f2530"/><text x="64" y="49" fill="#eef9f6" font-size="22" font-family="sans-serif" font-weight="bold">Quality-control tiers</text><text x="64" y="77" fill="#a3bbc7" font-size="14" font-family="sans-serif">124 measured PMTs · original thesis classifications</text><line x1="62" x2="940" y1="361.0" y2="361.0" stroke="#284654" stroke-width="1"/><text x="45" y="366.0" fill="#94afba" text-anchor="end" font-size="13" font-family="sans-serif">0</text><line x1="62" x2="940" y1="327.1" y2="327.1" stroke="#284654" stroke-width="1"/><text x="45" y="332.1" fill="#94afba" text-anchor="end" font-size="13" font-family="sans-serif">5</text><line x1="62" x2="940" y1="293.3" y2="293.3" stroke="#284654" stroke-width="1"/><text x="45" y="298.3" fill="#94afba" text-anchor="end" font-size="13" font-family="sans-serif">10</text><line x1="62" x2="940" y1="259.4" y2="259.4" stroke="#284654" stroke-width="1"/><text x="45" y="264.4" fill="#94afba" text-anchor="end" font-size="13" font-family="sans-serif">15</text><line x1="62" x2="940" y1="225.6" y2="225.6" stroke="#284654" stroke-width="1"/><text x="45" y="230.6" fill="#94afba" text-anchor="end" font-size="13" font-family="sans-serif">20</text><line x1="62" x2="940" y1="191.7" y2="191.7" stroke="#284654" stroke-width="1"/><text x="45" y="196.7" fill="#94afba" text-anchor="end" font-size="13" font-family="sans-serif">25</text><line x1="62" x2="940" y1="157.9" y2="157.9" stroke="#284654" stroke-width="1"/><text x="45" y="162.9" fill="#94afba" text-anchor="end" font-size="13" font-family="sans-serif">30</text><line x1="62" x2="940" y1="124.0" y2="124.0" stroke="#284654" stroke-width="1"/><text x="45" y="129.0" fill="#94afba" text-anchor="end" font-size="13" font-family="sans-serif">35</text><rect x="92" y="151.1" width="112" height="209.9" rx="7" fill="#ebbd49"/><text x="148" y="138.1" text-anchor="middle" fill="#e9f8f1" font-size="22" font-weight="bold" font-family="sans-serif">31</text><text x="148" y="396" text-anchor="middle" fill="#e5f2ee" font-size="13" font-weight="bold" font-family="sans-serif">GOLD</text><rect x="267" y="191.7" width="112" height="169.3" rx="7" fill="#a6bec8"/><text x="323" y="178.7" text-anchor="middle" fill="#e9f8f1" font-size="22" font-weight="bold" font-family="sans-serif">25</text><text x="323" y="396" text-anchor="middle" fill="#e5f2ee" font-size="13" font-weight="bold" font-family="sans-serif">SILVER</text><rect x="442" y="157.9" width="112" height="203.1" rx="7" fill="#d58f59"/><text x="498" y="144.9" text-anchor="middle" fill="#e9f8f1" font-size="22" font-weight="bold" font-family="sans-serif">30</text><text x="498" y="396" text-anchor="middle" fill="#e5f2ee" font-size="13" font-weight="bold" font-family="sans-serif">BRONZE</text><rect x="617" y="171.4" width="112" height="189.6" rx="7" fill="#b18ddf"/><text x="673" y="158.4" text-anchor="middle" fill="#e9f8f1" font-size="22" font-weight="bold" font-family="sans-serif">28</text><text x="673" y="396" text-anchor="middle" fill="#e5f2ee" font-size="13" font-weight="bold" font-family="sans-serif">REVIEW · retained</text><rect x="792" y="293.3" width="112" height="67.7" rx="7" fill="#de7771"/><text x="848" y="280.3" text-anchor="middle" fill="#e9f8f1" font-size="22" font-weight="bold" font-family="sans-serif">10</text><text x="848" y="396" text-anchor="middle" fill="#e5f2ee" font-size="13" font-weight="bold" font-family="sans-serif">REVIEW · inspect</text><text x="64" y="446" fill="#96b8bf" font-size="13" font-family="sans-serif">REVIEW retained = included for aging interpretation · REVIEW inspect = set aside pending individual review</text></svg>